<svg xmlns="http://www.w3.org/2000/svg" version="1.1" xmlns:xlink="http://www.w3.org/1999/xlink" xmlns:svgjs="http://svgjs.dev/svgjs" width="1500" height="231" viewBox="0 0 1500 231"><g transform="matrix(1,0,0,1,-0.9090909090909918,-0.6175086130581775)"><svg viewBox="0 0 396 61" data-background-color="#ffffff" preserveAspectRatio="xMidYMid meet" height="231" width="1500" xmlns="http://www.w3.org/2000/svg" xmlns:xlink="http://www.w3.org/1999/xlink"><g id="tight-bounds" transform="matrix(1,0,0,1,0.2400000000000091,0.1630650450067037)"><svg viewBox="0 0 395.52 60.673869909986585" height="60.673869909986585" width="395.52"><g><svg viewBox="0 0 400.67746273752346 61.4650390625" height="60.673869909986585" width="395.52"><g><svg viewBox="0 0 400.67746273752346 61.4650390625" height="61.4650390625" width="400.67746273752346"><g id="textblocktransform"><svg viewBox="0 0 400.67746273752346 61.4650390625" height="61.4650390625" width="400.67746273752346" id="textblock"><g><svg viewBox="0 0 400.67746273752346 61.4650390625" height="61.4650390625" width="400.67746273752346"><g><svg><g></g><g></g></svg></g><g><svg><g></g><g><svg></svg></g></svg></g><g id="text-0"><svg viewBox="0 0 400.67746273752346 61.4650390625" height="61.4650390625" width="400.67746273752346"><g transform="matrix(1,0,0,1,0,12.714941406249999)"><svg width="85.4736328125" viewBox="3.42 -35.55 85.47 36.04" height="36.03515625" data-palette-color="#bfbfde"><path d="M24.44-35.55L29.15-35.55 29.15-11.38Q29.13-6.35 25.99-3.15 22.85 0.05 17.48 0.44L17.48 0.44 16.24 0.49Q10.4 0.49 6.93-2.66 3.47-5.81 3.42-11.33L3.42-11.33 3.42-35.55 8.06-35.55 8.06-11.47Q8.06-7.62 10.18-5.48 12.3-3.34 16.24-3.34L16.24-3.34Q20.21-3.34 22.33-5.47 24.44-7.59 24.44-11.45L24.44-11.45 24.44-35.55ZM57.3 0L49.58-14.38 41.23-14.38 41.23 0 36.52 0 36.52-35.55 48.29-35.55Q54.29-35.55 57.53-32.81 60.76-30.08 60.76-24.85L60.76-24.85Q60.76-21.53 58.97-19.07 57.18-16.6 53.98-15.38L53.98-15.38 62.33-0.29 62.33 0 57.3 0ZM41.23-31.69L41.23-18.21 48.44-18.21Q51.93-18.21 53.99-20.02 56.05-21.83 56.05-24.85L56.05-24.85Q56.05-28.15 54.09-29.91 52.12-31.67 48.41-31.69L48.41-31.69 41.23-31.69ZM72.04-35.55L72.04-3.83 88.89-3.83 88.89 0 67.33 0 67.33-35.55 72.04-35.55Z" opacity="1" transform="matrix(1,0,0,1,0,0)" fill="#bfbfde" class="undefined-tk-0"></path></svg></g><g><svg xmlns="http://www.w3.org/2000/svg" xml:space="preserve" viewBox="0.011 47.42700000000003 511.9781583498278 417.14399999999995" x="99.98515625" y="0" height="61.4650390625" width="75.43859555002345" class="icon-dxe-0" data-fill-palette-color="accent" id="dxe-0"><path d="M0.011 376.293l79.512 21.531 149.165-84.748-59.606-34.404z" fill="#bfbfde" data-fill-palette-color="accent"></path><path d="M467.676 301.357c-4.345-3.063-9.845-6.25-16.28-9.404a9 9 0 0 1-0.906-0.438c-10.546-5.063-23.78-10.47-38.342-12.75-28.154-4.438-45.606-7.22-61.997-10.875l-20.938-11.907 20.938-11.89c16.391-3.672 33.843-6.453 61.997-10.89 14.562-2.281 27.796-7.687 38.342-12.75 0.297-0.125 0.594-0.281 0.906-0.438 6.438-3.156 11.938-6.344 16.28-9.406 41.48-28.499 56.605-81.091 33.45-121.183-15.687-27.155-45.123-41.999-76.59-41.999-17.606 0-35.874 4.64-52.686 14.375-43.248 24.938-62.106 74.7-45.687 115.527a9.1 9.1 0 0 1 1.22 4.578c0 3.969-2.438 7.343-5.892 8.765l-53.17 30.718L79.523 114.147 0.011 135.709l321.485 185.587v0.031a9.44 9.44 0 0 1 5.892 8.75 9.05 9.05 0 0 1-1.22 4.563c-16.422 40.842 2.438 90.59 45.687 115.526 16.812 9.749 35.077 14.405 52.686 14.405 31.468 0 60.903-14.874 76.59-42.03 23.152-40.092 8.027-92.684-33.455-121.184m-105.604-170.32c4.703-14.515 15.141-27.015 29.42-35.265 10.313-5.937 21.702-9.093 33.046-9.093 18.577 0 34.498 8.359 42.575 22.374 6.219 10.75 7.313 23.858 3.078 36.905-4.688 14.499-15.124 26.999-29.404 35.249-10.297 5.937-21.731 9.109-33.062 9.109-18.577 0-34.498-8.375-42.575-22.39-6.187-10.734-7.296-23.843-3.078-36.889m-93.215 138.01c-8.482 0-15.374-6.875-15.374-15.358s6.892-15.359 15.374-15.359c8.484 0 15.344 6.875 15.344 15.359s-6.859 15.358-15.344 15.358m198.256 133.87c-8.077 14.03-23.998 22.374-42.575 22.374-11.344 0-22.731-3.156-33.046-9.093-14.279-8.221-24.717-20.749-29.42-35.249-4.219-13.063-3.109-26.155 3.078-36.904 8.077-14 23.998-22.375 42.575-22.375 11.328 0 22.765 3.156 33.062 9.125 14.28 8.219 24.72 20.719 29.404 35.217 4.235 13.062 3.141 26.156-3.078 36.905" fill="#bfbfde" data-fill-palette-color="accent"></path></svg></g><g transform="matrix(1,0,0,1,189.93527523752346,10.761816406249999)"><svg width="210.7421875" viewBox="2.32 -37.5 210.72 37.99" height="37.98828125" data-palette-color="#bfbfde"><path d="M18.8-7.01L18.8-7.01Q18.8-8.84 17.42-9.85 16.04-10.86 12.61-11.6 9.18-12.33 7.17-13.35 5.15-14.38 4.19-15.8 3.22-17.21 3.22-19.17L3.22-19.17Q3.22-22.41 5.97-24.66 8.72-26.9 12.99-26.9L12.99-26.9Q17.48-26.9 20.28-24.58 23.07-22.27 23.07-18.65L23.07-18.65 18.53-18.65Q18.53-20.51 16.96-21.85 15.38-23.19 12.99-23.19L12.99-23.19Q10.52-23.19 9.13-22.12 7.74-21.04 7.74-19.31L7.74-19.31Q7.74-17.68 9.03-16.85 10.33-16.02 13.71-15.26 17.09-14.5 19.19-13.45 21.29-12.4 22.3-10.93 23.32-9.45 23.32-7.32L23.32-7.32Q23.32-3.78 20.48-1.65 17.65 0.49 13.13 0.49L13.13 0.49Q9.96 0.49 7.52-0.63 5.08-1.76 3.7-3.77 2.32-5.79 2.32-8.13L2.32-8.13 6.84-8.13Q6.96-5.86 8.65-4.53 10.35-3.2 13.13-3.2L13.13-3.2Q15.7-3.2 17.25-4.24 18.8-5.27 18.8-7.01ZM33.71-37.5L33.71-23.22Q36.72-26.9 41.53-26.9L41.53-26.9Q49.9-26.9 49.97-17.46L49.97-17.46 49.97 0 45.46 0 45.46-17.48Q45.43-20.34 44.15-21.7 42.87-23.07 40.16-23.07L40.16-23.07Q37.96-23.07 36.3-21.9 34.64-20.73 33.71-18.82L33.71-18.82 33.71 0 29.2 0 29.2-37.5 33.71-37.5ZM55.54-13.13L55.54-13.45Q55.54-17.33 57.06-20.43 58.59-23.54 61.31-25.22 64.03-26.9 67.52-26.9L67.52-26.9Q72.92-26.9 76.25-23.17 79.58-19.43 79.58-13.23L79.58-13.23 79.58-12.92Q79.58-9.06 78.11-5.99 76.63-2.93 73.88-1.22 71.14 0.49 67.57 0.49L67.57 0.49Q62.2 0.49 58.87-3.25 55.54-6.98 55.54-13.13L55.54-13.13ZM60.08-12.92L60.08-12.92Q60.08-8.52 62.12-5.86 64.16-3.2 67.57-3.2L67.57-3.2Q71.02-3.2 73.04-5.9 75.07-8.59 75.07-13.45L75.07-13.45Q75.07-17.8 73.01-20.5 70.94-23.19 67.52-23.19L67.52-23.19Q64.18-23.19 62.13-20.53 60.08-17.87 60.08-12.92ZM98.01-26.56L98.01-22.36Q96.99-22.53 95.79-22.53L95.79-22.53Q91.35-22.53 89.76-18.75L89.76-18.75 89.76 0 85.25 0 85.25-26.42 89.64-26.42 89.71-23.36Q91.94-26.9 96.01-26.9L96.01-26.9Q97.33-26.9 98.01-26.56L98.01-26.56ZM104.99-32.81L109.51-32.81 109.51-26.42 114.44-26.42 114.44-22.92 109.51-22.92 109.51-6.54Q109.51-4.96 110.17-4.16 110.83-3.37 112.42-3.37L112.42-3.37Q113.2-3.37 114.57-3.66L114.57-3.66 114.57 0Q112.78 0.49 111.1 0.49L111.1 0.49Q108.07 0.49 106.53-1.34 104.99-3.17 104.99-6.54L104.99-6.54 104.99-22.92 100.19-22.92 100.19-26.42 104.99-26.42 104.99-32.81ZM130.68 0.49L130.68 0.49Q125.3 0.49 121.94-3.04 118.57-6.57 118.57-12.48L118.57-12.48 118.57-13.31Q118.57-17.24 120.07-20.32 121.57-23.41 124.27-25.16 126.97-26.9 130.11-26.9L130.11-26.9Q135.27-26.9 138.12-23.51 140.98-20.12 140.98-13.79L140.98-13.79 140.98-11.91 123.08-11.91Q123.18-8.01 125.37-5.6 127.55-3.2 130.92-3.2L130.92-3.2Q133.31-3.2 134.97-4.17 136.63-5.15 137.88-6.76L137.88-6.76 140.64-4.61Q137.32 0.49 130.68 0.49ZM130.11-23.19L130.11-23.19Q127.38-23.19 125.52-21.2 123.67-19.21 123.23-15.63L123.23-15.63 136.46-15.63 136.46-15.97Q136.27-19.41 134.61-21.3 132.95-23.19 130.11-23.19ZM146.2-26.42L150.47-26.42 150.62-23.1Q153.65-26.9 158.53-26.9L158.53-26.9Q166.9-26.9 166.98-17.46L166.98-17.46 166.98 0 162.46 0 162.46-17.48Q162.44-20.34 161.15-21.7 159.87-23.07 157.16-23.07L157.16-23.07Q154.97-23.07 153.31-21.9 151.65-20.73 150.72-18.82L150.72-18.82 150.72 0 146.2 0 146.2-26.42ZM184.75 0.49L184.75 0.49Q179.38 0.49 176.01-3.04 172.64-6.57 172.64-12.48L172.64-12.48 172.64-13.31Q172.64-17.24 174.14-20.32 175.64-23.41 178.34-25.16 181.04-26.9 184.19-26.9L184.19-26.9Q189.34-26.9 192.19-23.51 195.05-20.12 195.05-13.79L195.05-13.79 195.05-11.91 177.16-11.91Q177.25-8.01 179.44-5.6 181.62-3.2 184.99-3.2L184.99-3.2Q187.38-3.2 189.05-4.17 190.71-5.15 191.95-6.76L191.95-6.76 194.71-4.61Q191.39 0.49 184.75 0.49ZM184.19-23.19L184.19-23.19Q181.45-23.19 179.6-21.2 177.74-19.21 177.3-15.63L177.3-15.63 190.53-15.63 190.53-15.97Q190.34-19.41 188.68-21.3 187.02-23.19 184.19-23.19ZM213.04-26.56L213.04-22.36Q212.02-22.53 210.82-22.53L210.82-22.53Q206.38-22.53 204.79-18.75L204.79-18.75 204.79 0 200.27 0 200.27-26.42 204.67-26.42 204.74-23.36Q206.96-26.9 211.04-26.9L211.04-26.9Q212.36-26.9 213.04-26.56L213.04-26.56Z" opacity="1" transform="matrix(1,0,0,1,0,0)" fill="#bfbfde" class="undefined-tk-1"></path></svg></g></svg></g></svg></g></svg></g></svg></g></svg></g><defs></defs></svg><rect width="395.52" height="60.673869909986585" fill="none" stroke="none" visibility="hidden"></rect></g></svg></g></svg>